<?xml version="1.0" encoding="UTF-8"?>

<svg
   width="64"
   height="64"
   viewBox="0 0 16.933333 16.933333"
   version="1.0"
   id="bar_icon"
   xmlns="http://www.w3.org/2000/svg"
   xmlns:svg="http://www.w3.org/2000/svg">
  <defs
     id="defs1" />
  <g
     inkscape:label="Calque 1"
     inkscape:groupmode="layer"
     id="layer1">
    <path
       style="color:#000000;fill:#8da5f3;-inkscape-stroke:none"
       d="M 1.5878906,7.1445312 C 0.71299301,7.1445312 0,7.8555711 0,8.7304688 0,9.6053664 0.71299289,10.318359 1.5878906,10.318359 H 15.345703 c 0.874898,0 1.587891,-0.7129926 1.587891,-1.5878902 0,-0.8748977 -0.712993,-1.5859376 -1.587891,-1.5859376 z m 0,0.5292969 H 15.345703 c 0.590893,0 1.058594,0.4657482 1.058594,1.0566407 0,0.5908924 -0.467701,1.0585937 -1.058594,1.0585937 H 1.5878906 c -0.59089236,0 -1.05859373,-0.4677012 -1.05859373,-1.0585937 0,-0.5908926 0.46770125,-1.0566407 1.05859373,-1.0566407 z"
       id="rect1" />
    <path
       id="rect1-5"
       style="fill:#8da5f3;stroke:none;stroke-width:0.529167"
       d="m 1.5875002,7.9375 h 6.35 c 0.4397375,0 0.79375,0.3540125 0.79375,0.79375 0,0.4397375 -0.3540125,0.79375 -0.79375,0.79375 h -6.35 c -0.4397375,0 -0.79375003,-0.3540125 -0.79375003,-0.79375 0,-0.4397375 0.35401253,-0.79375 0.79375003,-0.79375 z" />
  </g>
</svg>
